<?xml version="1.0" encoding="UTF-8"?>
<svg width="117px" height="160px" viewBox="0 0 117 160" version="1.1" xmlns="http://www.w3.org/2000/svg" xmlns:xlink="http://www.w3.org/1999/xlink">
    <!-- Generator: Sketch 52.6 (67491) - http://www.bohemiancoding.com/sketch -->
    <title>Person</title>
    <desc>Created with Sketch.</desc>
    <g id="Page-1" stroke="none" stroke-width="1" fill="none" fill-rule="evenodd">
        <g id="Coconut" transform="translate(-82.000000, -202.000000)">
            <g id="Person" transform="translate(82.000000, 202.000000)">
                <ellipse id="Head" stroke="#C9A26B" fill="#DDB275" cx="55.8" cy="46.9230769" rx="28.8" ry="28.9230769"></ellipse>
                <path d="M40.6324782,82.2971072 C37.7431293,84.4544903 37.313531,85.6936812 38.2661409,88.855773 C38.620813,90.0330708 39.1747259,90.8381599 40.4085791,92.1882303 C40.4647558,92.2496983 40.7552725,92.5662489 40.8379517,92.6568639 C42.2717023,94.228231 42.9965981,95.3041007 43.4939225,96.9329992 C44.5738386,100.470075 45.7961427,105.806095 45.9177853,107.336413 C46.0126103,108.529353 45.9206869,109.700043 45.5779151,112.671054 C45.5645921,112.786549 45.5645921,112.786549 45.5512982,112.902004 C45.0647286,117.131105 45.0726603,118.970384 45.7666149,119.640261 C47.3372841,121.156434 63.3632844,120.619446 64.6371175,118.925694 C65.2886217,118.059422 65.2839809,116.464428 64.8289026,112.404631 C64.8253273,112.372736 64.8253273,112.372736 64.8217518,112.340832 C64.5263519,109.704878 64.4429955,108.536229 64.5382882,107.336444 C64.6513148,105.91338 64.9470033,104.293317 65.4069589,102.445594 C65.6866138,101.32217 66.0186945,100.144638 66.4284041,98.7960913 C66.5722393,98.3226619 66.7221908,97.8391157 66.9023588,97.2656293 C66.9961292,96.9671519 67.3040505,95.9921379 67.3488299,95.8498768 C67.7890475,94.4513358 68.4088506,93.6174489 69.6337507,92.5043283 C69.677353,92.464705 70.237321,91.9623697 70.4035836,91.8089036 C70.6980386,91.5371117 70.9418014,91.2970188 71.1741408,91.045394 C71.7812023,90.387943 72.2870137,89.6708717 72.7420623,88.7738059 C74.3087941,85.6852099 72.0858232,82.4367199 68.3409708,81.4302122 C63.777296,80.2036288 43.144497,80.4214642 40.6324782,82.2971072 Z" id="Rectangle" stroke="#000000" fill="#000000"></path>
                <path d="M43.7147299,157.812794 L43.7147299,158.195799 C43.7147299,158.672963 44.0568851,159.081446 44.5266562,159.16512 C46.1735385,159.458457 47.4019977,159.403416 48.2120332,159 C49.6190574,158.299271 49.6057821,157.384412 50.0238269,156 C50.2162006,155.362929 50.275786,154.689142 50.2025832,153.978639 L50.2025792,153.97864 C50.1452952,153.422644 49.6768685,153 49.1179301,153 L48.6192981,153 C48.3581997,153 48.1074562,153.102119 47.9206495,153.284535 L44.0160813,157.097329 C43.8233783,157.285503 43.7147299,157.543455 43.7147299,157.812794 Z" id="Left-Shoe" stroke="#000000" fill="#000000" stroke-linejoin="round"></path>
                <path d="M64.2206353,157.65161 L64.2206269,158.179106 C64.2206269,158.66525 64.5702477,159.080965 65.0491945,159.164309 C66.7401297,159.458558 67.9909893,159.403789 68.8017734,159 C70.2087975,158.299271 69.8133915,157.559597 70.2314364,156.175185 C70.4227092,155.541759 70.4827092,154.844532 70.4114364,154.083502 L70.4114505,154.083501 C70.3539397,153.469417 69.8385057,153 69.2217348,153 L68.6451661,153 C68.3688152,153 68.1047845,153.11436 67.9157431,153.315937 L64.4912123,156.967547 C64.3173799,157.152907 64.2206353,157.397493 64.2206353,157.65161 Z" id="Right-Shoe" stroke="#000000" fill="#000000" stroke-linejoin="round"></path>
                <path d="M45.8596079,120.259671 C44.5051134,122.708082 43.4583741,125.801599 42.71939,129.540223 C41.4489624,135.967493 41.3331797,135.750239 41.3331797,139.781916 C41.3331797,143.445396 44.7567937,142.614458 46.0519423,139.781916 C47.347091,136.949373 50.4330169,135.192247 51.5092987,131.442177 C52.5855804,127.692107 53.5912314,125.752129 54.2350344,123.9263 C54.519765,123.118803 54.6104446,122.157739 54.5070734,121.04311 L54.5070487,121.043112 C54.4116571,120.014525 53.5486201,119.227823 52.5156191,119.227823 L47.609659,119.227824 C46.882042,119.227824 46.2118301,119.622987 45.8596079,120.259671 Z" id="Left-Leg" stroke="#000000" fill="#000000" transform="translate(47.940776, 130.727816) rotate(-9.000000) translate(-47.940776, -130.727816) "></path>
                <g id="Hammer" transform="translate(106.000000, 85.000000)">
                    <rect id="Rectangle" stroke="#542D1F" fill="#542D1F" x="4.3" y="0.75" width="2.6" height="17.75"></rect>
                    <path d="M0.695851665,3.61625454 C1.1247957,3.10384069 1.80460859,2.8060123 2.71426876,2.74797917 C4.13210793,2.65752601 6.52990172,2.85504767 9.92968897,3.337899 C9.95297993,3.34120687 9.9764753,3.342867 10,3.342867 C10.2761603,3.342867 10.5000325,3.11899481 10.5000325,2.84284416 L10.5,1.16426061 C10.5,0.903811096 10.3000517,0.68697641 10.0404672,0.665898594 C6.36865879,0.367955383 3.73224604,0.553714815 2.15544018,1.20181154 C1.11204567,1.63066621 0.619855945,2.40947723 0.695851665,3.61625454 Z" id="Rectangle" stroke="#979797" fill="#979797"></path>
                </g>
                <path d="M107.112096,96.2248401 C107.336287,95.7554329 107.610147,95.9770612 108.533137,95.8662471 C109.456127,95.7554329 110.421028,94.5202497 110.828485,94.1197539 C111.235942,93.7192581 113.931899,94.4202005 113.931899,94.8014064 C113.931899,95.1826124 114.177996,96.5722289 114.177996,97.0437623 C114.177996,97.5152957 113.800978,98.5625503 113.393048,98.9693289 C112.985118,99.3761075 112.018807,100.043535 111.481685,100.043535 C110.944564,100.043535 109.630635,98.9693289 108.855648,98.9693289 C108.125521,98.9693289 107.544337,98.9693289 107.112096,98.9693289 C106.962635,97.4526079 106.962635,96.5377783 107.112096,96.2248401 Z" id="Right-Hand" stroke="#C9A26B" stroke-width="0.5" fill="#C9A26B"></path>
                <path d="M28.5171483,124.810799 C28.7422975,124.343389 29.0173285,124.564075 29.9442627,124.453732 C30.8711968,124.343389 31.8402214,123.113462 32.2494197,122.714671 C32.658618,122.315879 35.366096,123.013839 35.366096,123.393422 C35.366096,123.773006 35.6132445,125.15671 35.6132445,125.626236 C35.6132445,126.095763 35.2346158,127.138561 34.8249424,127.543609 C34.4152689,127.948657 33.4448287,128.613244 32.9054116,128.613244 C32.3659946,128.613244 31.0464508,127.543609 30.2681517,127.543609 C29.534905,127.543609 28.9512372,127.543609 28.5171483,127.543609 C28.3670489,126.033342 28.3670489,125.122406 28.5171483,124.810799 Z" id="Left-Hand" stroke="#C9A26B" stroke-width="0.5" fill="#C9A26B" transform="translate(32.008909, 125.604335) rotate(90.000000) translate(-32.008909, -125.604335) "></path>
                <path d="M38.0279113,82.4334964 C36.1660962,80.8458132 32.7456364,84.2309102 32.5377867,87.0774408 C32.4444156,88.3561713 32.2065276,89.8505122 31.8085242,91.5631256 C31.3205483,93.6628919 31.4352111,97.0056626 31.436957,99.3253838 C31.4390703,102.133207 31.5607898,103.913157 31.8021154,104.665234 L35.8041076,104.523177 C35.7643107,104.241441 35.9382422,102.642824 36.3259021,99.7273259 C36.4954878,98.4519123 36.4674101,95.6763533 36.8323151,94.5829166 C37.1451419,93.6455324 37.7139128,92.1574313 38.5386279,90.1186135 C39.4393602,86.0536575 39.2691213,83.4919518 38.0279113,82.4334964 Z" id="Left-Arm" stroke="#000000" fill="#000000" stroke-linejoin="round" transform="translate(35.265415, 93.346243) rotate(9.000000) translate(-35.265415, -93.346243) "></path>
                <path d="M68.851554,85.3444259 C70.0816909,84.5921635 71.8384157,84.3447248 72.8883572,84.4169089 C74.549854,84.5311379 81.7800391,87.0343416 85.2378973,88.2132076 C86.8687872,88.7692167 87.8467361,90.0006402 89.0216698,90.524739 C90.3099312,91.0993895 91.171974,95.1508925 89.23969,95.0281212 C86.545542,94.8569433 82.2040538,94.9788244 81.5316868,94.9120818 C80.8593197,94.8453393 76.6530561,93.7778201 75.2954769,93.5176515 C73.1075231,93.0983485 71.4104998,91.5236241 70.845436,91.1350798 C70.2803723,90.7465355 68.3297651,89.2751316 67.9794921,88.3041762 C67.6292191,87.3332209 67.6214171,86.0966882 68.851554,85.3444259 Z" id="Right-arm" stroke="#000000" fill="#000000" stroke-linejoin="round" transform="translate(79.073509, 89.717895) rotate(19.000000) translate(-79.073509, -89.717895) "></path>
                <g id="Hair" stroke-linejoin="round">
                    <path d="M59.5496374,16.1253305 C57.2806203,15.2598647 54.5389041,13.2951164 51.3244887,10.2310858 C48.1100733,7.16705513 45.2128653,3.7566932 42.6328646,2.84217094e-14 L44.3392953,14.0865084 C41.8552292,13.890468 38.1983873,12.6053271 33.3687698,10.2310858 C28.5391523,7.85684445 23.904638,5.06595233 19.465227,1.85840943 C20.7587538,9.09257499 22.0994525,14.4048876 23.4873234,17.7953472 C24.8751942,21.1858068 26.9667734,24.2582803 29.762061,27.0127678 C23.0455337,26.4902819 17.7178169,25.555083 13.7789105,24.2071711 C9.84000402,22.8592592 6.18925169,20.7219845 2.82665346,17.7953472 C5.46408928,25.4535816 8.02087639,30.6308 10.4970148,33.3270022 C14.2112224,37.3713056 16.9070309,37.8733477 19.465227,39.5501491 C21.1706912,40.6680167 23.0434284,41.7805853 25.0834388,42.8878547 C18.6646826,44.9419044 13.8025413,47.1686743 10.4970148,49.5681644 C5.53872509,53.1673995 3.98837098,55.5915688 2.82665346,59.044112 C2.05217512,61.3458075 1.34232504,64.4281322 0.697103223,68.2910861 C6.99986343,63.9435353 12.663462,61.3852428 17.6878988,60.6162086 C22.7123357,59.8471744 26.8574929,59.3231422 30.1233703,59.044112 C28.1682874,64.0275604 26.9450689,68.3912856 26.4537149,72.1352877 C25.9623608,75.8792898 25.9623608,80.8362013 26.4537149,87.0060222 C32.5138944,84.1892586 36.5075804,81.7948274 38.4347731,79.8227287 C40.3619658,77.85063 42.9111735,74.5593991 46.0823964,69.9490361 C45.2801892,73.7157987 45.2801892,77.7281277 46.0823964,81.9860229 C46.8846036,86.2439181 48.6319677,90.6517388 51.3244887,95.2094848 C54.8810791,91.785024 57.6227953,88.1147947 59.5496374,84.1987971 C61.4764795,80.2827994 62.6496145,75.996721 63.0690425,71.3405619 C67.4655381,73.2758467 71.2874144,75.5956569 74.5346715,78.2999924 C77.7819285,81.0043279 81.7339057,85.1586303 86.390603,90.7628997 C86.3772707,80.1485497 85.4573962,72.2272437 83.6309792,66.9989819 C81.8045623,61.7707201 78.2185474,56.7935635 72.8729345,52.0675123 L94.5018011,54.249595 C89.3288429,47.728504 85.2407114,42.8286887 82.2374067,39.5501491 C79.2341019,36.2716096 76.1126112,33.3010842 72.8729345,30.6385729 L95.6501661,24.2071711 L59.5496374,16.1253305 Z" id="Path-31" stroke="#EDD382" fill="#EDD382"></path>
                    <path d="M54.4120441,28.0988149 C53.0038086,27.5648407 51.3021987,26.3526324 49.3072142,24.4621899 C47.3122298,22.5717475 45.514116,20.467626 43.9128727,18.1498253 L44.9719463,26.8409046 C43.4302435,26.7199518 41.160673,25.9270469 38.1632347,24.4621899 C35.1657965,22.997333 32.2894465,21.2754113 29.5341847,19.2964248 C30.336995,23.7597527 31.169082,27.0373378 32.0304456,29.12918 C32.8918093,31.2210223 34.1899203,33.1166738 35.9247786,34.8161345 C31.7562547,34.4937718 28.4496777,33.9167737 26.0050475,33.0851404 C23.5604173,32.2535071 21.2946262,30.9348537 19.207674,29.12918 C20.8445637,33.8541495 22.4313998,37.0483843 23.9681824,38.7118843 C26.2733562,41.2071344 27.9464741,41.5168838 29.5341847,42.551435 C30.5926585,43.2411358 31.7549481,43.9275671 33.0210536,44.6107291 C29.0373374,45.8780345 26.0197137,47.2519046 23.9681824,48.7323395 C20.8908854,50.9529919 19.9286787,52.4486533 19.207674,54.5787998 C18.7270043,55.9988975 18.2864452,57.900627 17.8859968,60.2839882 C21.7977216,57.6016409 25.3127592,56.0232282 28.4311095,55.5487503 C31.5494598,55.0742724 34.1220968,54.7509556 36.1490204,54.5787998 C34.9356241,57.6534826 34.1764497,60.3458092 33.8714973,62.6557797 C33.5665449,64.9657502 33.5665449,68.0240603 33.8714973,71.8307099 C37.6326676,70.092826 40.111296,68.6155124 41.3073827,67.398769 C42.5034693,66.1820256 44.0856014,64.1514054 46.053779,61.3069084 C45.5558997,63.6309217 45.5558997,66.1064443 46.053779,68.733476 C46.5516583,71.3605077 47.6361367,74.0800403 49.3072142,76.8920737 C51.5145651,74.7792534 53.216175,72.5147992 54.4120441,70.0987111 C55.6079131,67.682623 56.3360039,65.0382028 56.5963163,62.1654506 C59.3249431,63.3594806 61.6969402,64.7907547 63.7123073,66.4592727 C65.7276745,68.1277908 68.1804169,70.690908 71.0705345,74.1486242 C71.06226,67.5997937 70.491352,62.7125146 69.3578105,59.4867871 C68.224269,56.2610596 65.9986562,53.1902588 62.6809723,50.2743846 L76.1046423,51.6206837 C72.8941142,47.5973078 70.3568694,44.5742249 68.4929081,42.551435 C66.6289467,40.5286451 64.6916348,38.6958934 62.6809723,37.05318 L76.8173599,33.0851404 L54.4120441,28.0988149 Z" id="Path-31" stroke="#D8C077" fill="#D8C077"></path>
                </g>
                <path d="M59.0237126,119.000003 L63.4477559,119.000006 C64.2737067,119.000006 65.0146991,119.507732 65.3128763,120.277982 C66.182415,122.52417 66.9395466,125.539258 67.5842712,129.323247 C68.3316814,133.709913 67.5842712,137.488162 67.5842712,139.78567 C67.5842712,142.083178 63.3437016,143.734138 63.0707777,139.78567 C62.7978538,135.837203 59.9048149,134.674169 58.9758594,131.375772 C58.0469038,128.077376 57.5116696,126.94176 57.1705565,124.603351 C57.0127311,123.521421 56.9644392,122.290735 57.0256806,120.911291 L57.025689,120.911291 C57.0731488,119.842274 57.953643,119.000003 59.0237126,119.000003 Z" id="Path-8" stroke="#000000" fill="#000000" stroke-linejoin="round"></path>
                <path d="M87.9006702,96.4431436 L87.9006932,96.8939308 C87.9006932,97.8279267 88.5471498,98.6375589 89.4579776,98.8442978 C90.8079386,99.1507107 92.0144312,99.4025052 93.0774553,99.5996812 C95.2619437,100.004873 98.2842098,100 100.138764,100 C101.375133,100 103.692514,99.6787122 107.090909,99.0361366 L107.090909,96.2 C104.500886,96.0208619 102.183504,95.8368584 100.138764,95.6479896 C97.0716525,95.3646865 97.1804653,95.3130548 94.0994079,95 C92.7164588,94.8594837 91.3279759,94.723596 89.9339591,94.5923369 L89.9339616,94.5923111 C88.911775,94.4960631 88.0051047,95.2466847 87.9088567,96.2688712 C87.903402,96.3268019 87.9006702,96.3849567 87.9006702,96.4431436 Z" id="Path-9" stroke="#000000" fill="#000000" stroke-linejoin="round"></path>
                <path d="M31.8060655,104.170051 L31.9442949,104.170051 C33.0065532,104.170051 33.8754203,105.016356 33.9033615,106.078247 C33.9462048,107.706458 33.9165893,109.510818 33.8145157,111.491327 C33.5988251,115.676319 33.1379268,117.841465 33.0215969,119.554863 C32.9440435,120.697128 32.9440435,121.902191 33.0215969,123.170051 L30.0740741,123.170051 C29.7393197,120.857978 29.5203809,118.70514 29.4172577,116.711536 C29.2625729,113.721131 29.2446559,113.768032 29.4172577,110.472312 C29.4993606,108.90461 29.6343449,107.385982 29.8222106,105.916429 L29.8222193,105.91643 C29.9498519,104.918041 30.799552,104.170051 31.8060655,104.170051 Z" id="Path-12" stroke="#000000" fill="#000000" stroke-linejoin="round"></path>
                <path d="M65.4043862,141 L65.7704345,141.00002 C66.7950226,141.00002 67.6539009,141.774335 67.7597195,142.793444 C67.9083516,144.224879 68.0119646,145.599178 68.0705584,146.916341 C68.1945627,149.703906 68.1993424,149.85705 68.0705584,152.618738 C67.9847023,154.459863 67.8124165,156.253617 67.553701,158 L64.8699494,158 C64.8032469,156.429595 64.6167843,154.635841 64.3105617,152.618738 C63.8512277,149.593083 63.3218053,149.668469 63.1873051,146.916341 C63.1221473,145.583088 63.2021021,144.177301 63.4271696,142.698981 L63.4271665,142.69898 C63.5759211,141.72191 64.4160567,141 65.4043862,141 Z" id="Path-13" stroke="#000000" fill="#000000" stroke-linejoin="round"></path>
                <path d="M44.7225867,142 L44.9839479,142 C45.9798142,142 46.8233315,142.734023 46.9609115,143.72034 C47.0933774,144.669792 47.1595966,145.845513 47.1595966,147.247499 C47.1595966,150.888774 46.8159406,152.279549 46.5640136,154.599032 C46.3960623,156.145354 46.1690968,157.612343 45.8831173,159 L44.1195477,159 C44.0525829,158.525387 43.8140278,157.058397 43.4038822,154.599032 C42.788664,150.909984 42.1595966,149.98098 42.1595966,147.247499 C42.1595966,145.9005 42.3862091,144.59347 42.8394342,143.326409 L42.8394259,143.326406 C43.1239779,142.530897 43.8777168,142 44.7225867,142 Z" id="Path-14" stroke="#000000" fill="#000000" stroke-linejoin="round"></path>
            </g>
        </g>
    </g>
</svg>