<?xml version="1.0" encoding="UTF-8"?>
<svg width="102px" height="157px" viewBox="0 0 102 157" version="1.1" xmlns="http://www.w3.org/2000/svg" xmlns:xlink="http://www.w3.org/1999/xlink">
    <!-- Generator: Sketch 52.6 (67491) - http://www.bohemiancoding.com/sketch -->
    <title>Person@3x</title>
    <desc>Created with Sketch.</desc>
    <g id="Page-1" stroke="none" stroke-width="1" fill="none" fill-rule="evenodd">
        <g id="Coconut" transform="translate(-81.000000, -200.000000)">
            <g id="Person" transform="translate(81.000000, 200.000000)">
                <ellipse id="Oval" stroke="#C9A26B" fill="#DDB275" cx="55.8" cy="46.9230769" rx="28.8" ry="28.9230769"></ellipse>
                <path d="M41.8049634,83.3701886 C39.560575,86.4694107 39.4160515,89.5346866 40.1933836,101.464972 C40.2141895,101.784994 40.2141895,101.784994 40.2349454,102.107884 C40.2712013,102.67387 40.3209343,102.747365 41.9913996,104.909695 C43.2201612,106.500263 43.8334711,107.661028 43.9433954,109.043924 C44.0330303,110.171571 44.0307076,111.403481 43.9696841,114.054816 C43.9677082,114.140571 43.9677082,114.140571 43.9657286,114.226287 C43.8692687,118.402629 43.9482952,120.272704 44.240311,120.480043 C44.8745647,120.93038 62.6257085,120.687438 66.9300918,120.388927 C67.435304,120.35389 67.7725862,118.164136 67.8418715,114.116989 C67.8486775,113.719434 67.8523236,113.443496 67.8616126,112.673882 C67.8854269,110.700804 67.9068946,109.867698 67.9723202,109.043956 C68.0984944,107.455356 68.6636592,106.140053 69.7651961,104.408864 C71.4162917,101.813982 71.3959468,101.850543 71.4234775,101.134633 C71.4480366,100.495995 71.4739996,99.8815733 71.5149922,98.9507419 C71.9449712,89.1870871 71.7242766,86.0342299 69.7950366,83.3701886 C62.7946534,73.7035269 48.8053466,73.7035269 41.8049634,83.3701886 Z" id="Rectangle" stroke="#000000" fill="#000000"></path>
                <path d="M44.473156,119.230769 C42.5017957,124.493076 41.0926398,129.393312 40.245688,133.931475 C38.9752603,140.738719 37.8,145.995669 37.8,150.265695 C37.8,152.852403 37.9152806,154.618966 38.1458419,155.565385 L41.3094989,155.565385 C41.5474293,153.489443 41.8603635,151.722879 42.2483014,150.265695 C42.8302083,148.079917 43.6902566,145.449075 45.408208,140.584667 C47.1261594,135.720259 49.082292,132.778567 49.916499,129.385802 C50.4726371,127.123959 51.233804,123.738948 52.2,119.230769 L44.473156,119.230769 Z" id="Path-26" stroke="#000000" fill="#000000"></path>
                <path d="M66.073156,119.230769 C64.1017957,124.493076 62.6926398,129.393312 61.845688,133.931475 C60.5752603,140.738719 59.4,145.995669 59.4,150.265695 C59.4,152.852403 59.5152806,154.618966 59.7458419,155.565385 L62.9094989,155.565385 C63.1474293,153.489443 63.4603635,151.722879 63.8483014,150.265695 C64.4302083,148.079917 65.2902566,145.449075 67.008208,140.584667 C68.7261594,135.720259 70.682292,132.778567 71.516499,129.385802 C72.0726371,127.123959 72.833804,123.738948 73.8,119.230769 L66.073156,119.230769 Z" id="Path-26" stroke="#000000" fill="#000000" transform="translate(66.600000, 137.398077) scale(-1, 1) translate(-66.600000, -137.398077) "></path>
                <g id="Hammer" transform="translate(91.000000, 91.000000)">
                    <rect id="Rectangle" stroke="#542D1F" fill="#542D1F" x="4.3" y="0.75" width="2.6" height="17.75"></rect>
                    <path d="M0.695851665,3.61625454 C1.1247957,3.10384069 1.80460859,2.8060123 2.71426876,2.74797917 C4.13210793,2.65752601 6.52990172,2.85504767 9.92968897,3.337899 C9.95297993,3.34120687 9.9764753,3.342867 10,3.342867 C10.2761603,3.342867 10.5000325,3.11899481 10.5000325,2.84284416 L10.5,1.16426061 C10.5,0.903811096 10.3000517,0.68697641 10.0404672,0.665898594 C6.36865879,0.367955383 3.73224604,0.553714815 2.15544018,1.20181154 C1.11204567,1.63066621 0.619855945,2.40947723 0.695851665,3.61625454 Z" id="Rectangle" stroke="#979797" fill="#979797"></path>
                </g>
                <path d="M92.1120955,102.22484 C92.3362866,101.755433 92.6101473,101.977061 93.5331371,101.866247 C94.4561268,101.755433 95.421028,100.52025 95.828485,100.119754 C96.235942,99.7192581 98.9318988,100.4202 98.9318988,100.801406 C98.9318988,101.182612 99.1779956,102.572229 99.1779956,103.043762 C99.1779956,103.515296 98.8009781,104.56255 98.3930479,104.969329 C97.9851178,105.376108 97.0188071,106.043535 96.4816854,106.043535 C95.9445638,106.043535 94.6306351,104.969329 93.8556479,104.969329 C93.1255213,104.969329 92.5443372,104.969329 92.1120955,104.969329 C91.9626348,103.452608 91.9626348,102.537778 92.1120955,102.22484 Z" id="Path-32" stroke="#C9A26B" stroke-width="0.5" fill="#C9A26B"></path>
                <path d="M30.5171483,117.810799 C30.7422975,117.343389 31.0173285,117.564075 31.9442627,117.453732 C32.8711968,117.343389 33.8402214,116.113462 34.2494197,115.714671 C34.658618,115.315879 37.366096,116.013839 37.366096,116.393422 C37.366096,116.773006 37.6132445,118.15671 37.6132445,118.626236 C37.6132445,119.095763 37.2346158,120.138561 36.8249424,120.543609 C36.4152689,120.948657 35.4448287,121.613244 34.9054116,121.613244 C34.3659946,121.613244 33.0464508,120.543609 32.2681517,120.543609 C31.534905,120.543609 30.9512372,120.543609 30.5171483,120.543609 C30.3670489,119.033342 30.3670489,118.122406 30.5171483,117.810799 Z" id="Path-32" stroke="#C9A26B" stroke-width="0.5" fill="#C9A26B" transform="translate(34.008909, 118.604335) rotate(90.000000) translate(-34.008909, -118.604335) "></path>
                <path d="M38.3708109,91.1292173 C36.7442355,89.5415342 35.1845759,92.4385608 34.0869541,95.6566391 C32.9893322,98.8747173 32.6354613,103.72463 32.6382307,107.936364 C32.640077,110.744187 33.1277409,113.884034 34.1012225,117.355904 L36.8227628,116.218901 C36.480454,113.614548 36.4786392,110.854622 36.8173184,107.939123 C37.1559976,105.023625 37.9405143,102.583582 39.1708684,100.618994 C39.7218804,95.3509317 39.4551946,92.1876727 38.3708109,91.1292173 Z" id="Path-29" stroke="#000000" fill="#000000" stroke-linejoin="round" transform="translate(36.043780, 104.018523) rotate(9.000000) translate(-36.043780, -104.018523) "></path>
                <path d="M82.5300337,85.3477841 C80.9007082,83.7692037 79.3294503,86.658817 78.2212747,89.8673708 C77.1130992,93.0759246 76.7480953,97.9088416 76.7423346,102.105187 C76.7384941,104.902751 77.2215809,108.030139 78.191595,111.487351 L80.9254289,110.348973 C80.5871447,107.754827 80.5909197,105.004986 80.9367537,102.099448 C81.4555048,97.7411415 82.5565632,97.314207 83.3137845,94.801275 C84.0710058,92.288343 84.1593592,86.9263645 82.5300337,85.3477841 Z" id="Path-29" stroke="#000000" fill="#000000" stroke-linejoin="round" transform="translate(80.289299, 98.195300) scale(-1, -1) rotate(110.000000) translate(-80.289299, -98.195300) "></path>
                <g id="Hair" stroke-linejoin="round">
                    <path d="M59.5496374,16.1253305 C57.2806203,15.2598647 54.5389041,13.2951164 51.3244887,10.2310858 C48.1100733,7.16705513 45.2128653,3.7566932 42.6328646,2.84217094e-14 L44.3392953,14.0865084 C41.8552292,13.890468 38.1983873,12.6053271 33.3687698,10.2310858 C28.5391523,7.85684445 23.904638,5.06595233 19.465227,1.85840943 C20.7587538,9.09257499 22.0994525,14.4048876 23.4873234,17.7953472 C24.8751942,21.1858068 26.9667734,24.2582803 29.762061,27.0127678 C23.0455337,26.4902819 17.7178169,25.555083 13.7789105,24.2071711 C9.84000402,22.8592592 6.18925169,20.7219845 2.82665346,17.7953472 C5.46408928,25.4535816 8.02087639,30.6308 10.4970148,33.3270022 C14.2112224,37.3713056 16.9070309,37.8733477 19.465227,39.5501491 C21.1706912,40.6680167 23.0434284,41.7805853 25.0834388,42.8878547 C18.6646826,44.9419044 13.8025413,47.1686743 10.4970148,49.5681644 C5.53872509,53.1673995 3.98837098,55.5915688 2.82665346,59.044112 C2.05217512,61.3458075 1.34232504,64.4281322 0.697103223,68.2910861 C6.99986343,63.9435353 12.663462,61.3852428 17.6878988,60.6162086 C22.7123357,59.8471744 26.8574929,59.3231422 30.1233703,59.044112 C28.1682874,64.0275604 26.9450689,68.3912856 26.4537149,72.1352877 C25.9623608,75.8792898 25.9623608,80.8362013 26.4537149,87.0060222 C32.5138944,84.1892586 36.5075804,81.7948274 38.4347731,79.8227287 C40.3619658,77.85063 42.9111735,74.5593991 46.0823964,69.9490361 C45.2801892,73.7157987 45.2801892,77.7281277 46.0823964,81.9860229 C46.8846036,86.2439181 48.6319677,90.6517388 51.3244887,95.2094848 C54.8810791,91.785024 57.6227953,88.1147947 59.5496374,84.1987971 C61.4764795,80.2827994 62.6496145,75.996721 63.0690425,71.3405619 C67.4655381,73.2758467 71.2874144,75.5956569 74.5346715,78.2999924 C77.7819285,81.0043279 81.7339057,85.1586303 86.390603,90.7628997 C86.3772707,80.1485497 85.4573962,72.2272437 83.6309792,66.9989819 C81.8045623,61.7707201 78.2185474,56.7935635 72.8729345,52.0675123 L94.5018011,54.249595 C89.3288429,47.728504 85.2407114,42.8286887 82.2374067,39.5501491 C79.2341019,36.2716096 76.1126112,33.3010842 72.8729345,30.6385729 L95.6501661,24.2071711 L59.5496374,16.1253305 Z" id="Path-31" stroke="#EDD382" fill="#EDD382"></path>
                    <path d="M54.4120441,28.0988149 C53.0038086,27.5648407 51.3021987,26.3526324 49.3072142,24.4621899 C47.3122298,22.5717475 45.514116,20.467626 43.9128727,18.1498253 L44.9719463,26.8409046 C43.4302435,26.7199518 41.160673,25.9270469 38.1632347,24.4621899 C35.1657965,22.997333 32.2894465,21.2754113 29.5341847,19.2964248 C30.336995,23.7597527 31.169082,27.0373378 32.0304456,29.12918 C32.8918093,31.2210223 34.1899203,33.1166738 35.9247786,34.8161345 C31.7562547,34.4937718 28.4496777,33.9167737 26.0050475,33.0851404 C23.5604173,32.2535071 21.2946262,30.9348537 19.207674,29.12918 C20.8445637,33.8541495 22.4313998,37.0483843 23.9681824,38.7118843 C26.2733562,41.2071344 27.9464741,41.5168838 29.5341847,42.551435 C30.5926585,43.2411358 31.7549481,43.9275671 33.0210536,44.6107291 C29.0373374,45.8780345 26.0197137,47.2519046 23.9681824,48.7323395 C20.8908854,50.9529919 19.9286787,52.4486533 19.207674,54.5787998 C18.7270043,55.9988975 18.2864452,57.900627 17.8859968,60.2839882 C21.7977216,57.6016409 25.3127592,56.0232282 28.4311095,55.5487503 C31.5494598,55.0742724 34.1220968,54.7509556 36.1490204,54.5787998 C34.9356241,57.6534826 34.1764497,60.3458092 33.8714973,62.6557797 C33.5665449,64.9657502 33.5665449,68.0240603 33.8714973,71.8307099 C37.6326676,70.092826 40.111296,68.6155124 41.3073827,67.398769 C42.5034693,66.1820256 44.0856014,64.1514054 46.053779,61.3069084 C45.5558997,63.6309217 45.5558997,66.1064443 46.053779,68.733476 C46.5516583,71.3605077 47.6361367,74.0800403 49.3072142,76.8920737 C51.5145651,74.7792534 53.216175,72.5147992 54.4120441,70.0987111 C55.6079131,67.682623 56.3360039,65.0382028 56.5963163,62.1654506 C59.3249431,63.3594806 61.6969402,64.7907547 63.7123073,66.4592727 C65.7276745,68.1277908 68.1804169,70.690908 71.0705345,74.1486242 C71.06226,67.5997937 70.491352,62.7125146 69.3578105,59.4867871 C68.224269,56.2610596 65.9986562,53.1902588 62.6809723,50.2743846 L76.1046423,51.6206837 C72.8941142,47.5973078 70.3568694,44.5742249 68.4929081,42.551435 C66.6289467,40.5286451 64.6916348,38.6958934 62.6809723,37.05318 L76.8173599,33.0851404 L54.4120441,28.0988149 Z" id="Path-31" stroke="#D8C077" fill="#D8C077"></path>
                </g>
            </g>
            <path d="" id="Path-27" stroke="#979797"></path>
            <path d="" id="Path-28" stroke="#979797"></path>
            <path d="" id="Path-30" stroke="#979797"></path>
        </g>
    </g>
</svg>